<svg version="1.1" viewBox="0.0 0.0 960.0 720.0" fill="none" stroke="none" stroke-linecap="square" stroke-miterlimit="10" xmlns:xlink="http://www.w3.org/1999/xlink" xmlns="http://www.w3.org/2000/svg"><clipPath id="p.0"><path d="m0 0l960.0 0l0 720.0l-960.0 0l0 -720.0z" clip-rule="nonzero"/></clipPath><g clip-path="url(#p.0)"><path fill="#000000" fill-opacity="0.0" d="m0 0l960.0 0l0 720.0l-960.0 0z" fill-rule="evenodd"/><path fill="#000000" fill-opacity="0.0" d="m380.34393 173.95538c-66.048645 5.870987 -133.88455 9.628983 -196.3622 31.842514c-21.576416 7.6713715 -66.852554 18.436615 -56.61154 38.91864c15.295807 30.591599 49.29799 47.426773 74.301834 70.76378c45.88983 42.830658 109.00574 96.90411 169.82678 81.375336c35.64862 -9.101776 70.25256 -23.164154 102.60367 -40.687683c17.735352 -9.606628 37.19272 -19.971619 47.763794 -37.149597c1.9545898 -3.1762085 5.925598 -13.479218 3.538025 -10.614166c-15.403717 18.484467 -30.432648 37.536316 -42.456665 58.37796c-5.6911316 9.864563 -9.254547 20.89215 -12.383209 31.842499c-1.5368347 5.378937 -8.541626 13.115967 -3.5380554 10.614166c9.52652 -4.7632446 5.9467773 -9.130524 14.152222 -15.921234c17.58551 -14.553528 18.888092 -12.839722 37.149597 -26.53543c24.20514 -18.15329 22.670654 -20.248901 47.76642 -37.149628c18.385376 -12.381592 19.718872 -10.15155 38.91864 -21.228333c3.8307495 -2.2100525 2.739441 -4.4397583 7.076111 -5.3070984c7.864685 -1.572937 5.0515747 15.236633 7.076111 22.997375c7.765747 29.768799 12.785461 60.18802 19.45935 90.22049c3.0753174 13.839172 22.209595 -41.869293 30.073486 -30.073517c4.5909424 6.8864746 0.23828125 16.73703 -1.769043 24.766418c-2.2612915 9.045227 -0.5058594 22.365784 -8.845154 26.53543c-3.1645508 1.5822754 -0.2520752 -3.547058 0 -7.076111c0.7746582 -10.845459 3.6377563 -21.527405 7.076111 -31.84253c1.8365479 -5.509613 1.8815918 -18.518494 7.076111 -15.921265c11.125977 5.563019 3.538086 24.710388 3.538086 37.149628c0 1.084259 -0.2532959 14.215546 0 14.152222c24.284363 -6.0710754 37.416687 -34.012238 51.30182 -54.839905c9.658936 -14.488434 24.766418 -28.581818 24.766418 -45.99475" fill-rule="evenodd"/><path stroke="#000000" stroke-width="1.0" stroke-linejoin="round" stroke-linecap="butt" d="m380.34393 173.95538c-66.048645 5.870987 -133.88455 9.628983 -196.3622 31.842514c-21.576416 7.6713715 -66.852554 18.436615 -56.61154 38.91864c15.295807 30.591599 49.29799 47.426773 74.301834 70.76378c45.88983 42.830658 109.00574 96.90411 169.82678 81.375336c35.64862 -9.101776 70.25256 -23.164154 102.60367 -40.687683c17.735352 -9.606628 37.19272 -19.971619 47.763794 -37.149597c1.9545898 -3.1762085 5.925598 -13.479218 3.538025 -10.614166c-15.403717 18.484467 -30.432648 37.536316 -42.456665 58.37796c-5.6911316 9.864563 -9.254547 20.89215 -12.383209 31.842499c-1.5368347 5.378937 -8.541626 13.115967 -3.5380554 10.614166c9.52652 -4.7632446 5.9467773 -9.130524 14.152222 -15.921234c17.58551 -14.553528 18.888092 -12.839722 37.149597 -26.53543c24.20514 -18.15329 22.670654 -20.248901 47.76642 -37.149628c18.385376 -12.381592 19.718872 -10.15155 38.91864 -21.228333c3.8307495 -2.2100525 2.739441 -4.4397583 7.076111 -5.3070984c7.864685 -1.572937 5.0515747 15.236633 7.076111 22.997375c7.765747 29.768799 12.785461 60.18802 19.45935 90.22049c3.0753174 13.839172 22.209595 -41.869293 30.073486 -30.073517c4.5909424 6.8864746 0.23828125 16.73703 -1.769043 24.766418c-2.2612915 9.045227 -0.5058594 22.365784 -8.845154 26.53543c-3.1645508 1.5822754 -0.2520752 -3.547058 0 -7.076111c0.7746582 -10.845459 3.6377563 -21.527405 7.076111 -31.84253c1.8365479 -5.509613 1.8815918 -18.518494 7.076111 -15.921265c11.125977 5.563019 3.538086 24.710388 3.538086 37.149628c0 1.084259 -0.2532959 14.215546 0 14.152222c24.284363 -6.0710754 37.416687 -34.012238 51.30182 -54.839905c9.658936 -14.488434 24.766418 -28.581818 24.766418 -45.99475" fill-rule="evenodd"/></g></svg>